<svg width="130" height="26" viewBox="0 0 130 26" fill="none" xmlns="http://www.w3.org/2000/svg">
<path d="M24.6179 0.565033H30.5316L35.5482 12.7978H35.7798L40.7964 0.565033H46.7101V20.3227H42.0602V8.18639H41.8962L37.1497 20.1973H34.1783L29.4319 8.11886H29.2679V20.3227H24.6179V0.565033Z" fill="#FFF"/>
<path d="M49.6887 0.565033H55.6025L60.6191 12.7978H60.8507L65.8672 0.565033H71.781V20.3227H67.131V8.18639H66.967L62.2206 20.1973H59.2492L54.5027 8.11886H54.3387V20.3227H49.6887V0.565033Z" fill="#FFF"/>
<path d="M74.7958 20.3821V0.624406H82.9574C84.4367 0.624406 85.7133 0.913825 86.7874 1.49266C87.8679 2.06507 88.7008 2.86579 89.286 3.89484C89.8713 4.91745 90.164 6.10728 90.164 7.46433C90.164 8.82782 89.8649 10.0209 89.2668 11.0435C88.6751 12.0597 87.8293 12.8475 86.7295 13.4071C85.6297 13.9666 84.3241 14.2464 82.8127 14.2464H77.7768V10.4839H81.9252C82.6455 10.4839 83.2468 10.3585 83.7292 10.1077C84.218 9.85686 84.5878 9.50634 84.8387 9.05613C85.0895 8.5995 85.2149 8.0689 85.2149 7.46433C85.2149 6.85334 85.0895 6.32595 84.8387 5.88218C84.5878 5.43197 84.218 5.08467 83.7292 4.84027C83.2404 4.59587 82.6391 4.47367 81.9252 4.47367H79.5712V20.3821H74.7958Z" fill="#FFF"/>
<path d="M97.2354 0.624406V20.3821H92.5179V0.624406H97.2354Z" fill="#FFF"/>
<path d="M104.415 20.6329C103.47 20.6329 102.631 20.4753 101.897 20.1602C101.171 19.8386 100.595 19.3562 100.171 18.7131C99.7526 18.0635 99.5435 17.2499 99.5435 16.2723C99.5435 15.4491 99.6882 14.7545 99.9777 14.1885C100.267 13.6225 100.666 13.1627 101.174 12.8089C101.682 12.4552 102.267 12.1883 102.93 12.0082C103.592 11.8217 104.3 11.6963 105.052 11.632C105.895 11.5548 106.573 11.4744 107.088 11.3908C107.602 11.3007 107.975 11.1753 108.207 11.0145C108.445 10.8473 108.564 10.6126 108.564 10.3103V10.262C108.564 9.76682 108.393 9.38414 108.052 9.11402C107.712 8.84389 107.252 8.70883 106.673 8.70883C106.049 8.70883 105.547 8.84389 105.168 9.11402C104.788 9.38414 104.547 9.75717 104.444 10.2331L100.093 10.0787C100.222 9.17833 100.553 8.37439 101.087 7.66693C101.627 6.95303 102.367 6.39348 103.306 5.9883C104.251 5.57668 105.387 5.37087 106.711 5.37087C107.657 5.37087 108.528 5.48342 109.326 5.70853C110.123 5.9272 110.818 6.24877 111.41 6.67326C112.001 7.0913 112.458 7.60583 112.78 8.21682C113.108 8.82782 113.272 9.52564 113.272 10.3103V20.3821H108.834V18.3175H108.718C108.454 18.8192 108.117 19.2437 107.705 19.591C107.3 19.9383 106.821 20.1988 106.268 20.3724C105.721 20.5461 105.104 20.6329 104.415 20.6329ZM105.872 17.5457C106.38 17.5457 106.837 17.4428 107.242 17.237C107.654 17.0312 107.982 16.7482 108.226 16.3881C108.47 16.0215 108.593 15.597 108.593 15.1146V13.7061C108.458 13.7769 108.294 13.8412 108.101 13.8991C107.914 13.957 107.708 14.0116 107.483 14.0631C107.258 14.1145 107.027 14.1595 106.789 14.1981C106.551 14.2367 106.322 14.2721 106.104 14.3043C105.66 14.375 105.28 14.4843 104.965 14.6323C104.657 14.7802 104.419 14.9731 104.251 15.2111C104.091 15.4426 104.01 15.7192 104.01 16.0408C104.01 16.5296 104.184 16.9026 104.531 17.1599C104.885 17.4171 105.332 17.5457 105.872 17.5457Z" fill="#FFF"/>
<path d="M118.51 25.9389C117.944 25.9389 117.41 25.8939 116.909 25.8038C116.407 25.7202 115.976 25.6077 115.616 25.4662L116.658 22.0414C117.121 22.1957 117.539 22.2858 117.912 22.3115C118.291 22.3372 118.616 22.2761 118.886 22.1282C119.163 21.9867 119.375 21.7327 119.523 21.3661L119.706 20.9223L114.439 5.56382H119.378L122.109 16.1372H122.263L125.032 5.56382H130L124.414 21.8002C124.144 22.6106 123.761 23.3245 123.266 23.9419C122.777 24.5658 122.144 25.0546 121.366 25.4083C120.594 25.762 119.642 25.9389 118.51 25.9389Z" fill="#FFF"/>
<mask id="mask0_940_33" style="mask-type:luminance" maskUnits="userSpaceOnUse" x="0" y="0" width="22" height="21">
<path d="M10.9882 20.5413C16.5046 20.5413 20.9763 16.0696 20.9763 10.5532C20.9763 5.0367 16.5046 0.565002 10.9882 0.565002C5.4717 0.565002 1 5.0367 1 10.5532C1 16.0696 5.4717 20.5413 10.9882 20.5413Z" fill="white" stroke="white" stroke-width="0.43192" stroke-linejoin="round"/>
<path d="M8.99054 10.5532V7.09329L11.987 8.82324L14.9834 10.5532L11.987 12.2831L8.99054 14.0131V10.5532Z" fill="black" stroke="black" stroke-width="0.43192" stroke-linejoin="round"/>
</mask>
<g mask="url(#mask0_940_33)">
<path d="M-0.99762 -1.43259H22.974V22.539H-0.99762V-1.43259Z" fill="#FFF"/>
</g>
</svg>
