<svg width="622" height="124" viewBox="0 0 622 124" fill="none" xmlns="http://www.w3.org/2000/svg">
<path d="M115 2H143.42L167.528 60.7869H168.641L192.749 2H221.169V96.9491H198.822V38.6259H198.034L175.224 96.3464H160.945L138.135 38.3014H137.346V96.9491H115V2Z" fill="#CC0000"/>
<path d="M235.483 2H263.903L288.011 60.7869H289.124L313.232 2H341.652V96.9491H319.305V38.6259H318.517L295.707 96.3464H281.428L258.618 38.3014H257.829V96.9491H235.483V2Z" fill="#CC0000"/>
<path d="M356.14 97.2345V2.28533H395.362C402.471 2.28533 408.606 3.67618 413.768 6.4579C418.96 9.2087 422.963 13.0567 425.775 18.002C428.588 22.9164 429.994 28.6343 429.994 35.1559C429.994 41.7084 428.557 47.4418 425.683 52.3562C422.839 57.2396 418.775 61.0258 413.489 63.7148C408.204 66.4038 401.93 67.7483 394.666 67.7483H370.466V49.6672H390.401C393.863 49.6672 396.753 49.0645 399.071 47.8591C401.42 46.6536 403.197 44.9692 404.402 42.8056C405.608 40.6111 406.211 38.0612 406.211 35.1559C406.211 32.2196 405.608 29.6852 404.402 27.5526C403.197 25.389 401.42 23.72 399.071 22.5455C396.722 21.371 393.832 20.7837 390.401 20.7837H379.089V97.2345H356.14Z" fill="#CC0000"/>
<path d="M463.977 2.28533V97.2345H441.307V2.28533H463.977Z" fill="#CC0000"/>
<path d="M498.482 98.4399C493.939 98.4399 489.905 97.6826 486.382 96.1681C482.889 94.6227 480.123 92.3046 478.083 89.2138C476.074 86.0921 475.07 82.1823 475.07 77.4843C475.07 73.5281 475.765 70.19 477.156 67.4701C478.547 64.7502 480.463 62.5403 482.905 60.8404C485.346 59.1404 488.159 57.8578 491.343 56.9923C494.526 56.096 497.926 55.4933 501.542 55.1842C505.591 54.8133 508.852 54.427 511.325 54.0252C513.797 53.5925 515.59 52.9898 516.703 52.2171C517.846 51.4135 518.418 50.2853 518.418 48.8327V48.6008C518.418 46.2209 517.599 44.3819 515.961 43.0838C514.323 41.7856 512.113 41.1366 509.331 41.1366C506.333 41.1366 503.922 41.7856 502.099 43.0838C500.275 44.3819 499.116 46.1746 498.621 48.4618L477.712 47.72C478.33 43.3929 479.922 39.5294 482.487 36.1295C485.084 32.6987 488.638 30.0097 493.151 28.0625C497.694 26.0844 503.149 25.0954 509.516 25.0954C514.06 25.0954 518.248 25.6363 522.08 26.718C525.913 27.7689 529.251 29.3143 532.095 31.3542C534.938 33.3632 537.133 35.8359 538.678 38.7721C540.254 41.7084 541.042 45.0619 541.042 48.8327V97.2345H519.716V87.313H519.16C517.892 89.7238 516.27 91.7638 514.292 93.4328C512.345 95.1018 510.042 96.3536 507.384 97.1881C504.757 98.0226 501.789 98.4399 498.482 98.4399ZM505.483 83.6041C507.925 83.6041 510.119 83.1095 512.066 82.1205C514.044 81.1314 515.621 79.7715 516.795 78.0406C517.97 76.2789 518.557 74.239 518.557 71.9209V65.152C517.908 65.492 517.12 65.8011 516.193 66.0793C515.296 66.3574 514.307 66.6202 513.225 66.8674C512.144 67.1147 511.031 67.331 509.887 67.5165C508.744 67.7019 507.646 67.8719 506.596 68.0265C504.463 68.3665 502.639 68.8919 501.125 69.6028C499.641 70.3137 498.498 71.2409 497.694 72.3845C496.921 73.4972 496.535 74.8262 496.535 76.3716C496.535 78.7206 497.37 80.5133 499.039 81.7496C500.739 82.9859 502.887 83.6041 505.483 83.6041Z" fill="#CC0000"/>
<path d="M566.217 123.939C563.497 123.939 560.932 123.723 558.521 123.29C556.11 122.888 554.039 122.347 552.308 121.667L557.316 105.209C559.541 105.95 561.55 106.383 563.343 106.507C565.166 106.63 566.727 106.337 568.025 105.626C569.354 104.946 570.374 103.725 571.085 101.963L571.966 99.8307L546.652 26.0226H570.39L583.51 76.8352H584.252L597.558 26.0226H621.434L594.59 104.05C593.292 107.944 591.453 111.375 589.073 114.342C586.724 117.34 583.68 119.689 579.94 121.389C576.231 123.089 571.657 123.939 566.217 123.939Z" fill="#CC0000"/>
<mask id="mask0_934_23" style="mask-type:luminance" maskUnits="userSpaceOnUse" x="0" y="0" width="99" height="100">
<path d="M49.5 98C76.0104 98 97.5 76.5104 97.5 50C97.5 23.4896 76.0104 2 49.5 2C22.9896 2 1.5 23.4896 1.5 50C1.5 76.5104 22.9896 98 49.5 98Z" fill="white" stroke="white" stroke-width="2.07568" stroke-linejoin="round"/>
<path d="M39.9 50V33.3728L54.3 41.6864L68.7 50L54.3 58.3136L39.9 66.6272V50Z" fill="black" stroke="black" stroke-width="2.07568" stroke-linejoin="round"/>
</mask>
<g mask="url(#mask0_934_23)">
<path d="M-8.10001 -7.60001H107.1V107.6H-8.10001V-7.60001Z" fill="#CC0000"/>
</g>
</svg>
