<svg width="24" height="24" viewBox="0 0 24 24" fill="none" xmlns="http://www.w3.org/2000/svg">
<mask id="path-1-inside-1_17_978" fill="white">
<path d="M13.12 17.023L8.92096 14.733C8.37276 15.319 7.66095 15.7266 6.87803 15.9028C6.09512 16.0791 5.27731 16.0157 4.53088 15.721C3.78445 15.4263 3.14392 14.9139 2.69253 14.2504C2.24114 13.5869 1.99976 12.803 1.99976 12.0005C1.99976 11.198 2.24114 10.414 2.69253 9.75052C3.14392 9.08701 3.78445 8.57461 4.53088 8.27992C5.27731 7.98523 6.09512 7.92187 6.87803 8.09807C7.66095 8.27428 8.37276 8.6819 8.92096 9.26796L13.121 6.97796C12.8829 6.03393 12.9973 5.03546 13.4427 4.16973C13.8881 3.304 14.634 2.63045 15.5405 2.27533C16.447 1.92021 17.452 1.90791 18.3669 2.24074C19.2818 2.57356 20.044 3.22866 20.5105 4.08323C20.977 4.93779 21.1157 5.93316 20.9008 6.88274C20.6859 7.83232 20.132 8.67092 19.343 9.24133C18.554 9.81175 17.5841 10.0748 16.615 9.98123C15.6459 9.88764 14.7442 9.44382 14.079 8.73296L9.87896 11.023C10.0405 11.6643 10.0405 12.3356 9.87896 12.977L14.079 15.267C14.7446 14.5565 15.6464 14.1131 16.6156 14.02C17.5847 13.9269 18.5545 14.1904 19.3432 14.7612C20.1319 15.3319 20.6854 16.1708 20.8999 17.1204C21.1143 18.0701 20.9751 19.0654 20.5083 19.9197C20.0414 20.774 19.279 21.4288 18.3639 21.7612C17.4489 22.0937 16.444 22.0809 15.5376 21.7255C14.6313 21.37 13.8857 20.6961 13.4406 19.8303C12.9955 18.9644 12.8815 17.9659 13.12 17.022M5.99996 14C6.53039 14 7.0391 13.7892 7.41418 13.4142C7.78925 13.0391 7.99996 12.5304 7.99996 12C7.99996 11.4695 7.78925 10.9608 7.41418 10.5857C7.0391 10.2107 6.53039 9.99996 5.99996 9.99996C5.46953 9.99996 4.96082 10.2107 4.58575 10.5857C4.21068 10.9608 3.99996 11.4695 3.99996 12C3.99996 12.5304 4.21068 13.0391 4.58575 13.4142C4.96082 13.7892 5.46953 14 5.99996 14ZM17 7.99996C17.5304 7.99996 18.0391 7.78925 18.4142 7.41418C18.7892 7.0391 19 6.53039 19 5.99996C19 5.46953 18.7892 4.96082 18.4142 4.58575C18.0391 4.21068 17.5304 3.99996 17 3.99996C16.4695 3.99996 15.9608 4.21068 15.5857 4.58575C15.2107 4.96082 15 5.46953 15 5.99996C15 6.53039 15.2107 7.0391 15.5857 7.41418C15.9608 7.78925 16.4695 7.99996 17 7.99996ZM17 20C17.5304 20 18.0391 19.7892 18.4142 19.4142C18.7892 19.0391 19 18.5304 19 18C19 17.4695 18.7892 16.9608 18.4142 16.5857C18.0391 16.2107 17.5304 16 17 16C16.4695 16 15.9608 16.2107 15.5857 16.5857C15.2107 16.9608 15 17.4695 15 18C15 18.5304 15.2107 19.0391 15.5857 19.4142C15.9608 19.7892 16.4695 20 17 20Z"/>
</mask>
<path d="M13.12 17.023L8.92096 14.733C8.37276 15.319 7.66095 15.7266 6.87803 15.9028C6.09512 16.0791 5.27731 16.0157 4.53088 15.721C3.78445 15.4263 3.14392 14.9139 2.69253 14.2504C2.24114 13.5869 1.99976 12.803 1.99976 12.0005C1.99976 11.198 2.24114 10.414 2.69253 9.75052C3.14392 9.08701 3.78445 8.57461 4.53088 8.27992C5.27731 7.98523 6.09512 7.92187 6.87803 8.09807C7.66095 8.27428 8.37276 8.6819 8.92096 9.26796L13.121 6.97796C12.8829 6.03393 12.9973 5.03546 13.4427 4.16973C13.8881 3.304 14.634 2.63045 15.5405 2.27533C16.447 1.92021 17.452 1.90791 18.3669 2.24074C19.2818 2.57356 20.044 3.22866 20.5105 4.08323C20.977 4.93779 21.1157 5.93316 20.9008 6.88274C20.6859 7.83232 20.132 8.67092 19.343 9.24133C18.554 9.81175 17.5841 10.0748 16.615 9.98123C15.6459 9.88764 14.7442 9.44382 14.079 8.73296L9.87896 11.023C10.0405 11.6643 10.0405 12.3356 9.87896 12.977L14.079 15.267C14.7446 14.5565 15.6464 14.1131 16.6156 14.02C17.5847 13.9269 18.5545 14.1904 19.3432 14.7612C20.1319 15.3319 20.6854 16.1708 20.8999 17.1204C21.1143 18.0701 20.9751 19.0654 20.5083 19.9197C20.0414 20.774 19.279 21.4288 18.3639 21.7612C17.4489 22.0937 16.444 22.0809 15.5376 21.7255C14.6313 21.37 13.8857 20.6961 13.4406 19.8303C12.9955 18.9644 12.8815 17.9659 13.12 17.022M5.99996 14C6.53039 14 7.0391 13.7892 7.41418 13.4142C7.78925 13.0391 7.99996 12.5304 7.99996 12C7.99996 11.4695 7.78925 10.9608 7.41418 10.5857C7.0391 10.2107 6.53039 9.99996 5.99996 9.99996C5.46953 9.99996 4.96082 10.2107 4.58575 10.5857C4.21068 10.9608 3.99996 11.4695 3.99996 12C3.99996 12.5304 4.21068 13.0391 4.58575 13.4142C4.96082 13.7892 5.46953 14 5.99996 14ZM17 7.99996C17.5304 7.99996 18.0391 7.78925 18.4142 7.41418C18.7892 7.0391 19 6.53039 19 5.99996C19 5.46953 18.7892 4.96082 18.4142 4.58575C18.0391 4.21068 17.5304 3.99996 17 3.99996C16.4695 3.99996 15.9608 4.21068 15.5857 4.58575C15.2107 4.96082 15 5.46953 15 5.99996C15 6.53039 15.2107 7.0391 15.5857 7.41418C15.9608 7.78925 16.4695 7.99996 17 7.99996ZM17 20C17.5304 20 18.0391 19.7892 18.4142 19.4142C18.7892 19.0391 19 18.5304 19 18C19 17.4695 18.7892 16.9608 18.4142 16.5857C18.0391 16.2107 17.5304 16 17 16C16.4695 16 15.9608 16.2107 15.5857 16.5857C15.2107 16.9608 15 17.4695 15 18C15 18.5304 15.2107 19.0391 15.5857 19.4142C15.9608 19.7892 16.4695 20 17 20Z" fill="white"/>
<path d="M8.92096 14.733L9.39976 13.855L8.71977 13.4842L8.19066 14.0498L8.92096 14.733ZM1.99976 12.0005H2.99976H1.99976ZM8.92096 9.26796L8.19066 9.95109L8.71971 10.5167L9.39967 10.1459L8.92096 9.26796ZM13.121 6.97796L13.5997 7.85594L14.2801 7.48492L14.0906 6.73341L13.121 6.97796ZM14.079 8.73296L14.8091 8.04966L14.28 7.48434L13.6003 7.85499L14.079 8.73296ZM9.87896 11.023L9.40026 10.145L8.72001 10.5159L8.90925 11.2672L9.87896 11.023ZM9.87896 12.977L8.90925 12.7327L8.72001 13.484L9.40026 13.8549L9.87896 12.977ZM14.079 15.267L13.6003 16.1449L14.2797 16.5154L14.8088 15.9506L14.079 15.267ZM7.99996 12L8.99996 12L7.99996 12ZM3.99996 12L2.99996 12L3.99996 12ZM17 7.99996V8.99996V7.99996ZM17 3.99996V2.99996V3.99996ZM17 16L17 17L17 16ZM13.5988 16.145L9.39976 13.855L8.44217 15.6109L12.6412 17.9009L13.5988 16.145ZM8.19066 14.0498C7.77951 14.4894 7.24565 14.7951 6.65846 14.9273L7.0976 16.8784C8.07624 16.6582 8.96601 16.1487 9.65126 15.4161L8.19066 14.0498ZM6.65846 14.9273C6.07128 15.0594 5.45792 15.0119 4.8981 14.7909L4.16366 16.6511C5.0967 17.0195 6.11896 17.0987 7.0976 16.8784L6.65846 14.9273ZM4.8981 14.7909C4.33828 14.5698 3.85788 14.1856 3.51934 13.6879L1.86572 14.8129C2.42996 15.6423 3.23063 16.2828 4.16366 16.6511L4.8981 14.7909ZM3.51934 13.6879C3.18079 13.1903 2.99976 12.6023 2.99976 12.0005H0.999756C0.999756 13.0036 1.30148 13.9835 1.86572 14.8129L3.51934 13.6879ZM2.99976 12.0005C2.99976 11.3986 3.18079 10.8106 3.51934 10.313L1.86572 9.18803C1.30148 10.0174 0.999756 10.9973 0.999756 12.0005H2.99976ZM3.51934 10.313C3.85788 9.81537 4.33828 9.43108 4.8981 9.21006L4.16366 7.34979C3.23063 7.71815 2.42996 8.35865 1.86572 9.18803L3.51934 10.313ZM4.8981 9.21006C5.45792 8.98904 6.07128 8.94152 6.65846 9.07367L7.0976 7.12248C6.11897 6.90222 5.0967 6.98142 4.16366 7.34979L4.8981 9.21006ZM6.65846 9.07367C7.24565 9.20582 7.77951 9.51154 8.19066 9.95109L9.65126 8.58484C8.96601 7.85226 8.07624 7.34273 7.0976 7.12248L6.65846 9.07367ZM9.39967 10.1459L13.5997 7.85594L12.6423 6.09999L8.44226 8.38999L9.39967 10.1459ZM14.0906 6.73341C13.912 6.02538 13.9978 5.27653 14.3319 4.62724L12.5535 3.71222C11.9967 4.79439 11.8537 6.04247 12.1513 7.22251L14.0906 6.73341ZM14.3319 4.62724C14.666 3.97794 15.2254 3.47277 15.9053 3.20644L15.1758 1.34422C14.0426 1.78812 13.1103 2.63006 12.5535 3.71222L14.3319 4.62724ZM15.9053 3.20644C16.5852 2.9401 17.3388 2.93087 18.0251 3.18049L18.7088 1.30098C17.5651 0.884952 16.3089 0.900327 15.1758 1.34422L15.9053 3.20644ZM18.0251 3.18049C18.7113 3.43011 19.2829 3.92143 19.6327 4.56236L21.3882 3.60409C20.8051 2.53588 19.8524 1.71701 18.7088 1.30098L18.0251 3.18049ZM19.6327 4.56236C19.9826 5.20328 20.0867 5.94981 19.9255 6.662L21.8762 7.10349C22.1448 5.91651 21.9713 4.6723 21.3882 3.60409L19.6327 4.56236ZM19.9255 6.662C19.7643 7.37418 19.3489 8.00313 18.7572 8.43094L19.9289 10.0517C20.9152 9.33871 21.6075 8.29046 21.8762 7.10349L19.9255 6.662ZM18.7572 8.43094C18.1654 8.85875 17.4379 9.05605 16.7111 8.98586L16.5189 10.9766C17.7302 11.0936 18.9427 10.7647 19.9289 10.0517L18.7572 8.43094ZM16.7111 8.98586C15.9843 8.91567 15.308 8.5828 14.8091 8.04966L13.3488 9.41626C14.1804 10.3048 15.3075 10.8596 16.5189 10.9766L16.7111 8.98586ZM13.6003 7.85499L9.40026 10.145L10.3577 11.9009L14.5577 9.61094L13.6003 7.85499ZM8.90925 11.2672C9.0304 11.7482 9.0304 12.2517 8.90925 12.7327L10.8487 13.2212C11.0506 12.4196 11.0506 11.5804 10.8487 10.7787L8.90925 11.2672ZM9.40026 13.8549L13.6003 16.1449L14.5577 14.389L10.3577 12.099L9.40026 13.8549ZM14.8088 15.9506C15.308 15.4177 15.9844 15.0852 16.7112 15.0154L16.5199 13.0246C15.3085 13.1409 14.1812 13.6952 13.3492 14.5833L14.8088 15.9506ZM16.7112 15.0154C17.438 14.9455 18.1654 15.1432 18.7569 15.5713L19.9295 13.951C18.9436 13.2376 17.7313 12.9082 16.5199 13.0246L16.7112 15.0154ZM18.7569 15.5713C19.3485 15.9994 19.7636 16.6285 19.9244 17.3407L21.8753 16.9001C21.6072 15.713 20.9154 14.6645 19.9295 13.951L18.7569 15.5713ZM19.9244 17.3407C20.0853 18.053 19.9809 18.7994 19.6307 19.4402L21.3858 20.3992C21.9694 19.3313 22.1434 18.0872 21.8753 16.9001L19.9244 17.3407ZM19.6307 19.4402C19.2806 20.0809 18.7088 20.572 18.0225 20.8213L18.7054 22.7011C19.8492 22.2856 20.8022 21.4671 21.3858 20.3992L19.6307 19.4402ZM18.0225 20.8213C17.3362 21.0706 16.5825 21.0611 15.9028 20.7945L15.1725 22.6564C16.3055 23.1008 17.5616 23.1167 18.7054 22.7011L18.0225 20.8213ZM15.9028 20.7945C15.223 20.5279 14.6638 20.0225 14.33 19.3731L12.5512 20.2874C13.1076 21.3698 14.0396 22.2121 15.1725 22.6564L15.9028 20.7945ZM14.33 19.3731C13.9962 18.7237 13.9107 17.9748 14.0895 17.2669L12.1504 16.777C11.8524 17.957 11.9949 19.2051 12.5512 20.2874L14.33 19.3731ZM5.99996 15C6.79561 15 7.55867 14.6839 8.12128 14.1213L6.70707 12.7071C6.51953 12.8946 6.26518 13 5.99996 13V15ZM8.12128 14.1213C8.68389 13.5587 8.99996 12.7956 8.99996 12L6.99996 12C6.99996 12.2652 6.89461 12.5195 6.70707 12.7071L8.12128 14.1213ZM8.99996 12C8.99996 11.2043 8.68389 10.4413 8.12128 9.87864L6.70707 11.2929C6.89461 11.4804 6.99996 11.7347 6.99996 12L8.99996 12ZM8.12128 9.87864C7.55867 9.31603 6.79561 8.99996 5.99996 8.99996V11C6.26518 11 6.51953 11.1053 6.70707 11.2929L8.12128 9.87864ZM5.99996 8.99996C5.20431 8.99996 4.44125 9.31603 3.87864 9.87864L5.29285 11.2929C5.48039 11.1053 5.73475 11 5.99996 11V8.99996ZM3.87864 9.87864C3.31603 10.4413 2.99996 11.2043 2.99996 12L4.99996 12C4.99996 11.7347 5.10532 11.4804 5.29285 11.2929L3.87864 9.87864ZM2.99996 12C2.99996 12.7956 3.31603 13.5587 3.87864 14.1213L5.29285 12.7071C5.10532 12.5195 4.99996 12.2652 4.99996 12L2.99996 12ZM3.87864 14.1213C4.44125 14.6839 5.20431 15 5.99996 15V13C5.73475 13 5.48039 12.8946 5.29285 12.7071L3.87864 14.1213ZM17 8.99996C17.7956 8.99996 18.5587 8.68389 19.1213 8.12128L17.7071 6.70707C17.5195 6.89461 17.2652 6.99996 17 6.99996V8.99996ZM19.1213 8.12128C19.6839 7.55867 20 6.79561 20 5.99996H18C18 6.26518 17.8946 6.51953 17.7071 6.70707L19.1213 8.12128ZM20 5.99996C20 5.20431 19.6839 4.44125 19.1213 3.87864L17.7071 5.29286C17.8946 5.48039 18 5.73475 18 5.99996H20ZM19.1213 3.87864C18.5587 3.31603 17.7956 2.99996 17 2.99996V4.99996C17.2652 4.99996 17.5195 5.10532 17.7071 5.29286L19.1213 3.87864ZM17 2.99996C16.2043 2.99996 15.4413 3.31603 14.8786 3.87864L16.2929 5.29286C16.4804 5.10532 16.7347 4.99996 17 4.99996V2.99996ZM14.8786 3.87864C14.316 4.44125 14 5.20431 14 5.99996H16C16 5.73475 16.1053 5.48039 16.2929 5.29286L14.8786 3.87864ZM14 5.99996C14 6.79561 14.316 7.55867 14.8786 8.12128L16.2929 6.70707C16.1053 6.51953 16 6.26518 16 5.99996H14ZM14.8786 8.12128C15.4413 8.68389 16.2043 8.99996 17 8.99996V6.99996C16.7347 6.99996 16.4804 6.89461 16.2929 6.70707L14.8786 8.12128ZM17 21C17.7956 21 18.5587 20.6839 19.1213 20.1213L17.7071 18.7071C17.5195 18.8946 17.2652 19 17 19V21ZM19.1213 20.1213C19.6839 19.5587 20 18.7956 20 18H18C18 18.2652 17.8946 18.5195 17.7071 18.7071L19.1213 20.1213ZM20 18C20 17.2043 19.6839 16.4413 19.1213 15.8786L17.7071 17.2929C17.8946 17.4804 18 17.7347 18 18H20ZM19.1213 15.8786C18.5587 15.316 17.7956 15 17 15L17 17C17.2652 17 17.5195 17.1053 17.7071 17.2929L19.1213 15.8786ZM17 15C16.2043 15 15.4413 15.316 14.8786 15.8786L16.2929 17.2929C16.4804 17.1053 16.7347 17 17 17L17 15ZM14.8786 15.8786C14.316 16.4413 14 17.2043 14 18H16C16 17.7347 16.1053 17.4804 16.2929 17.2929L14.8786 15.8786ZM14 18C14 18.7956 14.316 19.5587 14.8786 20.1213L16.2929 18.7071C16.1053 18.5195 16 18.2652 16 18H14ZM14.8786 20.1213C15.4413 20.6839 16.2043 21 17 21V19C16.7347 19 16.4804 18.8946 16.2929 18.7071L14.8786 20.1213Z" fill="#0F0F0F" mask="url(#path-1-inside-1_17_978)"/>
</svg>
