<svg width="24" height="24" viewBox="0 0 24 24" fill="none" xmlns="http://www.w3.org/2000/svg">
<path d="M13.4263 4.79606C13.2118 4.91088 13.0167 5.05579 12.846 5.22553L12.0005 4.66223C12.2717 4.36039 12.5945 4.10684 12.9546 3.9141C13.3146 3.72145 13.7044 3.59388 14.106 3.53591V4.55059C13.8696 4.59888 13.6405 4.68133 13.4263 4.79606ZM11.4159 5.47436L12.2495 6.02979L10.2885 8.97134L9.45618 8.41628L11.4159 5.47436ZM16.2167 5.73993L15.7572 8.5H15H14.7436L15.231 5.57548L16.2167 5.73993ZM16.2964 4.73941L15.3954 4.58908L15.4102 4.5H15.32V3.58605C15.3642 3.6017 15.4077 3.61945 15.4504 3.63925C15.648 3.7309 15.8233 3.86448 15.964 4.03071C16.1048 4.19694 16.2076 4.39183 16.2654 4.60183C16.2779 4.64727 16.2883 4.69318 16.2964 4.73941ZM5.5 9.5H7.43V10.5H5.5V10V9.5ZM4.5 11.5V17.5H3.5V11.5H4H4.5ZM5.5 20.4495C5.02328 20.3522 4.58142 20.117 4.23223 19.7678C3.88304 19.4186 3.64782 18.9767 3.5505 18.5H4.58579C4.65967 18.709 4.77964 18.901 4.93934 19.0607C5.09904 19.2204 5.29105 19.3403 5.5 19.4142V20.4495ZM16.86 20.5H6.5V19.5H16.86V20.5ZM19.6642 18.9703C19.5074 19.3427 19.2615 19.674 18.9452 19.9333C18.6289 20.1926 18.2559 20.3687 17.86 20.4495V19.4147C18.023 19.3573 18.176 19.2717 18.3116 19.1606C18.4475 19.0494 18.5616 18.9161 18.6502 18.7675L19.6642 18.9703ZM18.06 9.5V10.5H16.4379L16.4802 10.2461L16.6044 9.5H18.06ZM15.5907 9.5L15.5759 9.58879L15.5 9.57618V9.5H15.5907ZM19.0602 10.5857L19.0607 9.55062C19.2568 9.5907 19.448 9.65431 19.6301 9.74049C19.9643 9.89875 20.2592 10.1292 20.4937 10.4152C20.7281 10.7012 20.8962 11.0356 20.9857 11.3944C21.0345 11.5897 21.0593 11.7896 21.0602 11.9897L20.6201 11.9017L20.0453 11.7868C20.0379 11.7361 20.028 11.686 20.0157 11.6364C19.9619 11.4211 19.8609 11.2203 19.7202 11.0487C19.5794 10.8771 19.4023 10.7389 19.2016 10.644C19.1554 10.6221 19.1082 10.6027 19.0602 10.5857ZM18.9303 17.8038L19.9342 12.7843L20.4239 12.8823L20.9137 12.9802L19.9098 17.9997L18.9303 17.8038ZM8.43 10.4494V9.41427C8.50118 9.38911 8.57059 9.35853 8.6376 9.32269C8.70464 9.28683 8.76887 9.24598 8.82968 9.20052L9.69053 9.77476C9.5193 9.94463 9.32376 10.0895 9.10955 10.2041C8.89532 10.3188 8.66634 10.4012 8.43 10.4494Z" fill="white" stroke="#0F0F0F"/>
<path d="M8 10V20" stroke="#0F0F0F" stroke-width="2"/>
</svg>
