<svg width="24" height="24" viewBox="0 0 24 24" fill="none" xmlns="http://www.w3.org/2000/svg">
<path d="M12 12.2V12.4831L12.2428 12.6287L16.3092 15.0686L16.0362 15.5121L11.5 12.7206V7.5H12V12.2ZM2.5 12C2.5 6.77614 6.77614 2.5 12 2.5C17.2239 2.5 21.5 6.77614 21.5 12C21.5 17.2239 17.2239 21.5 12 21.5C6.77614 21.5 2.5 17.2239 2.5 12ZM3.5 12C3.5 16.6861 7.31386 20.5 12 20.5C16.6861 20.5 20.5 16.6861 20.5 12C20.5 7.31386 16.6861 3.5 12 3.5C7.31386 3.5 3.5 7.31386 3.5 12Z" fill="white" stroke="#0F0F0F"/>
</svg>
